<svg width="668" height="418" viewBox="0 0 668 418" fill="none" xmlns="http://www.w3.org/2000/svg">
<rect width="668" height="418" fill="white"/>
<path d="M78.6612 338.276C78.5476 337.13 78.0599 336.24 77.1982 335.605C76.3364 334.971 75.1669 334.653 73.6896 334.653C72.6858 334.653 71.8383 334.795 71.147 335.08C70.4557 335.354 69.9254 335.738 69.5561 336.23C69.1963 336.723 69.0163 337.281 69.0163 337.906C68.9974 338.427 69.1063 338.882 69.343 339.27C69.5893 339.658 69.9254 339.994 70.3516 340.278C70.7777 340.553 71.2701 340.795 71.8288 341.003C72.3875 341.202 72.9841 341.372 73.6186 341.514L76.2322 342.139C77.5012 342.423 78.666 342.802 79.7266 343.276C80.7872 343.749 81.7057 344.331 82.4822 345.023C83.2588 345.714 83.8601 346.528 84.2862 347.466C84.7218 348.403 84.9444 349.478 84.9538 350.69C84.9444 352.471 84.4898 354.014 83.5902 355.321C82.7 356.618 81.4122 357.627 79.7266 358.347C78.0504 359.057 76.0286 359.412 73.6612 359.412C71.3127 359.412 69.2673 359.052 67.5249 358.332C65.7919 357.613 64.4377 356.547 63.4624 355.136C62.4964 353.716 61.9898 351.959 61.9425 349.866H67.8942C67.9605 350.842 68.2398 351.656 68.7322 352.31C69.2341 352.954 69.9018 353.441 70.7351 353.773C71.5779 354.095 72.5296 354.256 73.5902 354.256C74.6319 354.256 75.5362 354.104 76.3033 353.801C77.0798 353.498 77.6811 353.077 78.1072 352.537C78.5334 351.997 78.7464 351.377 78.7464 350.676C78.7464 350.023 78.5523 349.473 78.1641 349.028C77.7853 348.583 77.2266 348.205 76.4879 347.892C75.7588 347.58 74.8639 347.295 73.8033 347.04L70.6357 346.244C68.183 345.648 66.2464 344.715 64.826 343.446C63.4055 342.177 62.7 340.468 62.7095 338.318C62.7 336.557 63.1688 335.018 64.1158 333.702C65.0722 332.385 66.3838 331.358 68.0504 330.619C69.7171 329.881 71.611 329.511 73.7322 329.511C75.8913 329.511 77.7758 329.881 79.3857 330.619C81.005 331.358 82.2644 332.385 83.1641 333.702C84.0637 335.018 84.5277 336.543 84.5561 338.276H78.6612ZM88.9773 367.182V337.182H94.9432V340.847H95.2131C95.4782 340.259 95.8617 339.663 96.3636 339.057C96.875 338.441 97.5379 337.93 98.3523 337.523C99.1761 337.106 100.199 336.898 101.42 336.898C103.011 336.898 104.479 337.314 105.824 338.148C107.169 338.972 108.243 340.217 109.048 341.884C109.853 343.541 110.256 345.619 110.256 348.119C110.256 350.553 109.863 352.608 109.077 354.284C108.3 355.951 107.24 357.215 105.895 358.077C104.56 358.929 103.063 359.355 101.406 359.355C100.232 359.355 99.233 359.161 98.4091 358.773C97.5947 358.384 96.9271 357.897 96.4062 357.31C95.8854 356.713 95.4877 356.112 95.2131 355.506H95.0284V367.182H88.9773ZM94.9006 348.091C94.9006 349.388 95.0805 350.52 95.4403 351.486C95.8002 352.452 96.321 353.205 97.0028 353.744C97.6847 354.275 98.5133 354.54 99.4886 354.54C100.473 354.54 101.307 354.27 101.989 353.73C102.67 353.181 103.187 352.423 103.537 351.457C103.897 350.482 104.077 349.36 104.077 348.091C104.077 346.831 103.902 345.723 103.551 344.767C103.201 343.811 102.685 343.062 102.003 342.523C101.321 341.983 100.483 341.713 99.4886 341.713C98.5038 341.713 97.6705 341.973 96.9886 342.494C96.3163 343.015 95.8002 343.754 95.4403 344.71C95.0805 345.667 94.9006 346.794 94.9006 348.091ZM114.29 359V337.182H120.156V340.989H120.384C120.781 339.634 121.449 338.612 122.386 337.92C123.324 337.22 124.403 336.869 125.625 336.869C125.928 336.869 126.255 336.888 126.605 336.926C126.955 336.964 127.263 337.016 127.528 337.082V342.452C127.244 342.366 126.851 342.291 126.349 342.224C125.848 342.158 125.388 342.125 124.972 342.125C124.081 342.125 123.286 342.319 122.585 342.707C121.894 343.086 121.345 343.616 120.938 344.298C120.54 344.98 120.341 345.766 120.341 346.656V359H114.29ZM130.657 359V337.182H136.708V359H130.657ZM133.697 334.369C132.797 334.369 132.025 334.071 131.381 333.474C130.747 332.868 130.43 332.144 130.43 331.301C130.43 330.468 130.747 329.753 131.381 329.156C132.025 328.55 132.797 328.247 133.697 328.247C134.596 328.247 135.363 328.55 135.998 329.156C136.642 329.753 136.964 330.468 136.964 331.301C136.964 332.144 136.642 332.868 135.998 333.474C135.363 334.071 134.596 334.369 133.697 334.369ZM147.607 346.386V359H141.555V337.182H147.322V341.031H147.578C148.061 339.762 148.871 338.759 150.007 338.02C151.143 337.272 152.521 336.898 154.141 336.898C155.656 336.898 156.977 337.229 158.104 337.892C159.231 338.555 160.107 339.502 160.732 340.733C161.357 341.955 161.669 343.413 161.669 345.108V359H155.618V346.188C155.627 344.852 155.286 343.811 154.595 343.062C153.904 342.305 152.952 341.926 151.74 341.926C150.926 341.926 150.206 342.101 149.581 342.452C148.965 342.802 148.482 343.313 148.132 343.986C147.791 344.649 147.616 345.449 147.607 346.386ZM176.268 367.636C174.308 367.636 172.627 367.366 171.225 366.827C169.833 366.296 168.725 365.572 167.901 364.653C167.077 363.735 166.542 362.703 166.296 361.557L171.893 360.804C172.063 361.24 172.333 361.647 172.702 362.026C173.072 362.404 173.559 362.707 174.165 362.935C174.781 363.171 175.529 363.29 176.41 363.29C177.726 363.29 178.81 362.968 179.663 362.324C180.524 361.689 180.955 360.624 180.955 359.128V355.136H180.7C180.434 355.742 180.037 356.315 179.506 356.855C178.976 357.395 178.294 357.835 177.461 358.176C176.628 358.517 175.633 358.688 174.478 358.688C172.84 358.688 171.348 358.309 170.004 357.551C168.668 356.784 167.603 355.615 166.808 354.043C166.022 352.461 165.629 350.463 165.629 348.048C165.629 345.577 166.031 343.512 166.836 341.855C167.641 340.198 168.711 338.957 170.046 338.134C171.391 337.31 172.863 336.898 174.464 336.898C175.685 336.898 176.708 337.106 177.532 337.523C178.356 337.93 179.019 338.441 179.521 339.057C180.032 339.663 180.425 340.259 180.7 340.847H180.927V337.182H186.935V359.213C186.935 361.069 186.481 362.622 185.572 363.872C184.663 365.122 183.403 366.06 181.793 366.685C180.193 367.319 178.351 367.636 176.268 367.636ZM176.396 354.142C177.371 354.142 178.195 353.901 178.867 353.418C179.549 352.925 180.07 352.224 180.43 351.315C180.799 350.397 180.984 349.298 180.984 348.02C180.984 346.741 180.804 345.634 180.444 344.696C180.084 343.749 179.563 343.015 178.881 342.494C178.2 341.973 177.371 341.713 176.396 341.713C175.401 341.713 174.563 341.983 173.881 342.523C173.2 343.053 172.683 343.792 172.333 344.739C171.983 345.686 171.808 346.779 171.808 348.02C171.808 349.279 171.983 350.368 172.333 351.287C172.693 352.196 173.209 352.902 173.881 353.403C174.563 353.896 175.401 354.142 176.396 354.142ZM201.122 359V329.909H212.77C214.91 329.909 216.695 330.226 218.125 330.861C219.555 331.495 220.63 332.376 221.349 333.503C222.069 334.62 222.429 335.908 222.429 337.366C222.429 338.503 222.202 339.502 221.747 340.364C221.293 341.216 220.668 341.917 219.872 342.466C219.086 343.006 218.187 343.389 217.173 343.616V343.901C218.281 343.948 219.318 344.26 220.284 344.838C221.259 345.416 222.05 346.225 222.656 347.267C223.262 348.299 223.565 349.53 223.565 350.96C223.565 352.504 223.182 353.882 222.415 355.094C221.657 356.296 220.535 357.248 219.048 357.949C217.562 358.65 215.729 359 213.551 359H201.122ZM207.273 353.972H212.287C214.001 353.972 215.251 353.645 216.037 352.991C216.823 352.329 217.216 351.448 217.216 350.349C217.216 349.545 217.022 348.834 216.634 348.219C216.245 347.603 215.691 347.12 214.972 346.77C214.261 346.42 213.414 346.244 212.429 346.244H207.273V353.972ZM207.273 342.082H211.832C212.675 342.082 213.423 341.936 214.077 341.642C214.74 341.339 215.26 340.913 215.639 340.364C216.027 339.814 216.222 339.156 216.222 338.389C216.222 337.338 215.848 336.491 215.099 335.847C214.361 335.203 213.31 334.881 211.946 334.881H207.273V342.082ZM237.312 359.426C235.105 359.426 233.197 358.957 231.587 358.02C229.987 357.073 228.751 355.757 227.88 354.071C227.009 352.376 226.573 350.411 226.573 348.176C226.573 345.922 227.009 343.953 227.88 342.267C228.751 340.572 229.987 339.256 231.587 338.318C233.197 337.371 235.105 336.898 237.312 336.898C239.518 336.898 241.422 337.371 243.022 338.318C244.632 339.256 245.872 340.572 246.744 342.267C247.615 343.953 248.05 345.922 248.05 348.176C248.05 350.411 247.615 352.376 246.744 354.071C245.872 355.757 244.632 357.073 243.022 358.02C241.422 358.957 239.518 359.426 237.312 359.426ZM237.34 354.739C238.344 354.739 239.182 354.455 239.854 353.886C240.527 353.309 241.033 352.523 241.374 351.528C241.725 350.534 241.9 349.402 241.9 348.134C241.9 346.865 241.725 345.733 241.374 344.739C241.033 343.744 240.527 342.958 239.854 342.381C239.182 341.803 238.344 341.514 237.34 341.514C236.327 341.514 235.475 341.803 234.783 342.381C234.102 342.958 233.585 343.744 233.235 344.739C232.894 345.733 232.724 346.865 232.724 348.134C232.724 349.402 232.894 350.534 233.235 351.528C233.585 352.523 234.102 353.309 234.783 353.886C235.475 354.455 236.327 354.739 237.34 354.739ZM261.843 359.426C259.637 359.426 257.728 358.957 256.119 358.02C254.518 357.073 253.282 355.757 252.411 354.071C251.54 352.376 251.104 350.411 251.104 348.176C251.104 345.922 251.54 343.953 252.411 342.267C253.282 340.572 254.518 339.256 256.119 338.318C257.728 337.371 259.637 336.898 261.843 336.898C264.049 336.898 265.953 337.371 267.553 338.318C269.163 339.256 270.404 340.572 271.275 342.267C272.146 343.953 272.582 345.922 272.582 348.176C272.582 350.411 272.146 352.376 271.275 354.071C270.404 355.757 269.163 357.073 267.553 358.02C265.953 358.957 264.049 359.426 261.843 359.426ZM261.871 354.739C262.875 354.739 263.713 354.455 264.386 353.886C265.058 353.309 265.565 352.523 265.906 351.528C266.256 350.534 266.431 349.402 266.431 348.134C266.431 346.865 266.256 345.733 265.906 344.739C265.565 343.744 265.058 342.958 264.386 342.381C263.713 341.803 262.875 341.514 261.871 341.514C260.858 341.514 260.006 341.803 259.315 342.381C258.633 342.958 258.117 343.744 257.766 344.739C257.425 345.733 257.255 346.865 257.255 348.134C257.255 349.402 257.425 350.534 257.766 351.528C258.117 352.523 258.633 353.309 259.315 353.886C260.006 354.455 260.858 354.739 261.871 354.739ZM288.121 337.182V341.727H274.982V337.182H288.121ZM277.965 331.955H284.016V352.295C284.016 352.854 284.102 353.29 284.272 353.602C284.442 353.905 284.679 354.118 284.982 354.241C285.295 354.365 285.655 354.426 286.062 354.426C286.346 354.426 286.63 354.402 286.914 354.355C287.198 354.298 287.416 354.256 287.567 354.227L288.519 358.73C288.216 358.825 287.79 358.934 287.241 359.057C286.692 359.189 286.024 359.27 285.238 359.298C283.78 359.355 282.501 359.161 281.403 358.716C280.314 358.271 279.466 357.58 278.86 356.642C278.254 355.705 277.956 354.521 277.965 353.091V331.955Z" fill="#8BC34A"/>
<g clip-path="url(#clip0_201_6)">
<path d="M298.896 173.34C299.324 147.045 293.372 115.777 280.971 79.0901L271.249 50.3209L258.042 77.677C257.335 79.1395 256.529 80.5712 255.686 81.9844C233.991 63.4466 205.841 52.1722 175 52.1722C106.51 52.1722 50.9921 107.427 50.9921 175.592C50.9921 243.757 106.51 299.013 175 299.013C243.49 299.013 299.008 243.757 299.008 175.592C299.008 174.833 298.909 174.099 298.896 173.34Z" fill="#8BC34A"/>
<path d="M270.393 228.404C251.029 254.952 216.753 256.377 184.493 255.816H142.448H130.432C157.887 245.985 174.225 243.646 190.91 234.834C222.334 218.388 253.398 182.405 259.865 144.972C247.898 180.986 211.632 211.927 178.584 224.51C155.94 233.106 115.042 241.449 115.042 241.449L113.387 240.555C85.5469 226.614 84.7036 164.571 135.317 144.54C157.478 135.759 178.677 140.584 202.617 134.709C228.175 128.464 257.738 108.742 269.767 83.0273C283.234 124.169 299.442 188.589 270.393 228.404ZM123.338 264.733C121.59 266.893 118.917 268.158 116.127 268.158C111.024 268.158 106.858 263.98 106.858 258.901C106.858 253.822 111.055 249.645 116.127 249.645C118.242 249.645 120.325 250.373 121.962 251.718C125.93 254.921 126.55 260.783 123.338 264.733Z" fill="white"/>
</g>
<path d="M355.86 359V329.909H375.463V334.98H362.011V341.912H374.454V346.983H362.011V353.929H375.52V359H355.86ZM386.29 329.909V359H380.239V329.909H386.29ZM397.359 359.412C395.967 359.412 394.726 359.17 393.637 358.688C392.548 358.195 391.687 357.471 391.052 356.514C390.427 355.548 390.115 354.346 390.115 352.906C390.115 351.694 390.337 350.676 390.782 349.852C391.227 349.028 391.833 348.366 392.6 347.864C393.368 347.362 394.239 346.983 395.214 346.727C396.199 346.472 397.231 346.292 398.311 346.188C399.58 346.055 400.602 345.932 401.379 345.818C402.155 345.695 402.719 345.515 403.069 345.278C403.42 345.042 403.595 344.691 403.595 344.227V344.142C403.595 343.242 403.311 342.546 402.743 342.054C402.184 341.562 401.388 341.315 400.356 341.315C399.267 341.315 398.401 341.557 397.757 342.04C397.113 342.513 396.687 343.11 396.478 343.83L390.882 343.375C391.166 342.049 391.725 340.903 392.558 339.938C393.391 338.962 394.466 338.214 395.782 337.693C397.108 337.163 398.642 336.898 400.385 336.898C401.597 336.898 402.757 337.04 403.865 337.324C404.982 337.608 405.972 338.048 406.833 338.645C407.705 339.241 408.391 340.009 408.893 340.946C409.395 341.874 409.646 342.987 409.646 344.284V359H403.907V355.974H403.737C403.386 356.656 402.918 357.258 402.331 357.778C401.743 358.29 401.038 358.692 400.214 358.986C399.39 359.27 398.439 359.412 397.359 359.412ZM399.092 355.236C399.982 355.236 400.768 355.061 401.45 354.71C402.132 354.35 402.667 353.867 403.055 353.261C403.443 352.655 403.637 351.969 403.637 351.202V348.886C403.448 349.009 403.188 349.123 402.856 349.227C402.534 349.322 402.17 349.412 401.762 349.497C401.355 349.573 400.948 349.644 400.541 349.71C400.134 349.767 399.764 349.819 399.433 349.866C398.723 349.971 398.102 350.136 397.572 350.364C397.042 350.591 396.63 350.899 396.336 351.287C396.043 351.666 395.896 352.139 395.896 352.707C395.896 353.531 396.194 354.161 396.791 354.597C397.397 355.023 398.164 355.236 399.092 355.236ZM432.494 343.403L426.954 343.744C426.859 343.271 426.656 342.845 426.343 342.466C426.031 342.078 425.619 341.77 425.108 341.543C424.606 341.306 424.004 341.188 423.304 341.188C422.366 341.188 421.575 341.386 420.931 341.784C420.288 342.172 419.966 342.693 419.966 343.347C419.966 343.867 420.174 344.308 420.591 344.668C421.007 345.027 421.722 345.316 422.735 345.534L426.684 346.33C428.806 346.765 430.387 347.466 431.429 348.432C432.47 349.398 432.991 350.667 432.991 352.239C432.991 353.669 432.57 354.923 431.727 356.003C430.894 357.082 429.748 357.925 428.289 358.531C426.841 359.128 425.169 359.426 423.275 359.426C420.387 359.426 418.086 358.825 416.372 357.622C414.667 356.41 413.668 354.762 413.375 352.679L419.326 352.366C419.506 353.247 419.942 353.92 420.633 354.384C421.324 354.838 422.21 355.065 423.289 355.065C424.35 355.065 425.202 354.862 425.846 354.455C426.5 354.038 426.831 353.503 426.841 352.849C426.831 352.3 426.599 351.85 426.145 351.5C425.69 351.14 424.989 350.866 424.042 350.676L420.264 349.923C418.133 349.497 416.547 348.759 415.505 347.707C414.473 346.656 413.957 345.316 413.957 343.688C413.957 342.286 414.336 341.079 415.093 340.065C415.86 339.052 416.935 338.271 418.318 337.722C419.71 337.172 421.339 336.898 423.204 336.898C425.96 336.898 428.128 337.48 429.71 338.645C431.301 339.81 432.229 341.396 432.494 343.403ZM448.407 337.182V341.727H435.267V337.182H448.407ZM438.25 331.955H444.301V352.295C444.301 352.854 444.387 353.29 444.557 353.602C444.728 353.905 444.964 354.118 445.267 354.241C445.58 354.365 445.94 354.426 446.347 354.426C446.631 354.426 446.915 354.402 447.199 354.355C447.483 354.298 447.701 354.256 447.853 354.227L448.804 358.73C448.501 358.825 448.075 358.934 447.526 359.057C446.977 359.189 446.309 359.27 445.523 359.298C444.065 359.355 442.786 359.161 441.688 358.716C440.599 358.271 439.751 357.58 439.145 356.642C438.539 355.705 438.241 354.521 438.25 353.091V331.955ZM452.348 359V337.182H458.4V359H452.348ZM455.388 334.369C454.489 334.369 453.717 334.071 453.073 333.474C452.438 332.868 452.121 332.144 452.121 331.301C452.121 330.468 452.438 329.753 453.073 329.156C453.717 328.55 454.489 328.247 455.388 328.247C456.288 328.247 457.055 328.55 457.689 329.156C458.333 329.753 458.655 330.468 458.655 331.301C458.655 332.144 458.333 332.868 457.689 333.474C457.055 334.071 456.288 334.369 455.388 334.369ZM473.105 359.426C470.87 359.426 468.948 358.953 467.338 358.006C465.737 357.049 464.506 355.723 463.645 354.028C462.792 352.333 462.366 350.383 462.366 348.176C462.366 345.941 462.797 343.981 463.659 342.295C464.53 340.6 465.766 339.279 467.366 338.332C468.967 337.376 470.87 336.898 473.076 336.898C474.98 336.898 476.646 337.243 478.076 337.935C479.506 338.626 480.638 339.597 481.471 340.847C482.305 342.097 482.764 343.564 482.849 345.25H477.139C476.978 344.161 476.552 343.285 475.86 342.622C475.179 341.95 474.284 341.614 473.176 341.614C472.238 341.614 471.419 341.869 470.718 342.381C470.027 342.883 469.487 343.616 469.099 344.582C468.711 345.548 468.517 346.718 468.517 348.091C468.517 349.483 468.706 350.667 469.085 351.642C469.473 352.617 470.018 353.361 470.718 353.872C471.419 354.384 472.238 354.639 473.176 354.639C473.867 354.639 474.487 354.497 475.037 354.213C475.595 353.929 476.055 353.517 476.414 352.977C476.784 352.428 477.025 351.77 477.139 351.003H482.849C482.754 352.67 482.3 354.137 481.485 355.406C480.681 356.666 479.568 357.651 478.147 358.361C476.727 359.071 475.046 359.426 473.105 359.426ZM504.877 343.403L499.337 343.744C499.242 343.271 499.039 342.845 498.726 342.466C498.414 342.078 498.002 341.77 497.49 341.543C496.989 341.306 496.387 341.188 495.686 341.188C494.749 341.188 493.958 341.386 493.314 341.784C492.67 342.172 492.348 342.693 492.348 343.347C492.348 343.867 492.557 344.308 492.973 344.668C493.39 345.027 494.105 345.316 495.118 345.534L499.067 346.33C501.188 346.765 502.77 347.466 503.811 348.432C504.853 349.398 505.374 350.667 505.374 352.239C505.374 353.669 504.953 354.923 504.11 356.003C503.276 357.082 502.131 357.925 500.672 358.531C499.223 359.128 497.552 359.426 495.658 359.426C492.77 359.426 490.469 358.825 488.755 357.622C487.05 356.41 486.051 354.762 485.757 352.679L491.709 352.366C491.889 353.247 492.325 353.92 493.016 354.384C493.707 354.838 494.593 355.065 495.672 355.065C496.733 355.065 497.585 354.862 498.229 354.455C498.882 354.038 499.214 353.503 499.223 352.849C499.214 352.3 498.982 351.85 498.527 351.5C498.073 351.14 497.372 350.866 496.425 350.676L492.647 349.923C490.516 349.497 488.93 348.759 487.888 347.707C486.856 346.656 486.34 345.316 486.34 343.688C486.34 342.286 486.719 341.079 487.476 340.065C488.243 339.052 489.318 338.271 490.701 337.722C492.093 337.172 493.721 336.898 495.587 336.898C498.343 336.898 500.511 337.48 502.093 338.645C503.684 339.81 504.612 341.396 504.877 343.403ZM519.127 359.426C516.883 359.426 514.951 358.972 513.332 358.062C511.722 357.144 510.482 355.847 509.61 354.17C508.739 352.485 508.304 350.491 508.304 348.19C508.304 345.946 508.739 343.976 509.61 342.281C510.482 340.586 511.708 339.265 513.289 338.318C514.88 337.371 516.746 336.898 518.886 336.898C520.325 336.898 521.665 337.13 522.906 337.594C524.156 338.048 525.245 338.735 526.173 339.653C527.11 340.572 527.84 341.727 528.36 343.119C528.881 344.502 529.142 346.121 529.142 347.977V349.639H510.718V345.889H523.446C523.446 345.018 523.256 344.246 522.877 343.574C522.499 342.902 521.973 342.376 521.301 341.997C520.638 341.609 519.866 341.415 518.985 341.415C518.067 341.415 517.252 341.628 516.542 342.054C515.842 342.471 515.292 343.034 514.895 343.744C514.497 344.445 514.293 345.226 514.284 346.088V349.653C514.284 350.733 514.483 351.666 514.88 352.452C515.288 353.238 515.86 353.844 516.599 354.27C517.338 354.696 518.214 354.909 519.227 354.909C519.899 354.909 520.515 354.814 521.074 354.625C521.632 354.436 522.11 354.152 522.508 353.773C522.906 353.394 523.209 352.93 523.417 352.381L529.014 352.75C528.73 354.095 528.147 355.269 527.267 356.273C526.395 357.267 525.269 358.044 523.886 358.602C522.513 359.152 520.927 359.426 519.127 359.426ZM539.312 359.412C537.92 359.412 536.68 359.17 535.591 358.688C534.502 358.195 533.64 357.471 533.005 356.514C532.38 355.548 532.068 354.346 532.068 352.906C532.068 351.694 532.29 350.676 532.735 349.852C533.181 349.028 533.787 348.366 534.554 347.864C535.321 347.362 536.192 346.983 537.167 346.727C538.152 346.472 539.184 346.292 540.264 346.188C541.533 346.055 542.556 345.932 543.332 345.818C544.109 345.695 544.672 345.515 545.022 345.278C545.373 345.042 545.548 344.691 545.548 344.227V344.142C545.548 343.242 545.264 342.546 544.696 342.054C544.137 341.562 543.342 341.315 542.309 341.315C541.22 341.315 540.354 341.557 539.71 342.04C539.066 342.513 538.64 343.11 538.431 343.83L532.835 343.375C533.119 342.049 533.678 340.903 534.511 339.938C535.344 338.962 536.419 338.214 537.735 337.693C539.061 337.163 540.595 336.898 542.338 336.898C543.55 336.898 544.71 337.04 545.818 337.324C546.935 337.608 547.925 338.048 548.787 338.645C549.658 339.241 550.344 340.009 550.846 340.946C551.348 341.874 551.599 342.987 551.599 344.284V359H545.86V355.974H545.69C545.34 356.656 544.871 357.258 544.284 357.778C543.697 358.29 542.991 358.692 542.167 358.986C541.343 359.27 540.392 359.412 539.312 359.412ZM541.045 355.236C541.935 355.236 542.721 355.061 543.403 354.71C544.085 354.35 544.62 353.867 545.008 353.261C545.396 352.655 545.591 351.969 545.591 351.202V348.886C545.401 349.009 545.141 349.123 544.809 349.227C544.487 349.322 544.123 349.412 543.716 349.497C543.308 349.573 542.901 349.644 542.494 349.71C542.087 349.767 541.717 349.819 541.386 349.866C540.676 349.971 540.056 350.136 539.525 350.364C538.995 350.591 538.583 350.899 538.289 351.287C537.996 351.666 537.849 352.139 537.849 352.707C537.849 353.531 538.147 354.161 538.744 354.597C539.35 355.023 540.117 355.236 541.045 355.236ZM556.294 359V337.182H562.16V340.989H562.387C562.785 339.634 563.453 338.612 564.39 337.92C565.328 337.22 566.407 336.869 567.629 336.869C567.932 336.869 568.259 336.888 568.609 336.926C568.959 336.964 569.267 337.016 569.532 337.082V342.452C569.248 342.366 568.855 342.291 568.353 342.224C567.851 342.158 567.392 342.125 566.975 342.125C566.085 342.125 565.29 342.319 564.589 342.707C563.898 343.086 563.349 343.616 562.941 344.298C562.544 344.98 562.345 345.766 562.345 346.656V359H556.294ZM581.503 359.426C579.268 359.426 577.346 358.953 575.736 358.006C574.136 357.049 572.905 355.723 572.043 354.028C571.191 352.333 570.765 350.383 570.765 348.176C570.765 345.941 571.195 343.981 572.057 342.295C572.928 340.6 574.164 339.279 575.765 338.332C577.365 337.376 579.268 336.898 581.475 336.898C583.378 336.898 585.045 337.243 586.475 337.935C587.905 338.626 589.036 339.597 589.87 340.847C590.703 342.097 591.162 343.564 591.248 345.25H585.537C585.376 344.161 584.95 343.285 584.259 342.622C583.577 341.95 582.682 341.614 581.574 341.614C580.637 341.614 579.818 341.869 579.117 342.381C578.426 342.883 577.886 343.616 577.498 344.582C577.109 345.548 576.915 346.718 576.915 348.091C576.915 349.483 577.105 350.667 577.483 351.642C577.872 352.617 578.416 353.361 579.117 353.872C579.818 354.384 580.637 354.639 581.574 354.639C582.266 354.639 582.886 354.497 583.435 354.213C583.994 353.929 584.453 353.517 584.813 352.977C585.182 352.428 585.424 351.77 585.537 351.003H591.248C591.153 352.67 590.698 354.137 589.884 355.406C589.079 356.666 587.966 357.651 586.546 358.361C585.125 359.071 583.444 359.426 581.503 359.426ZM601.173 346.386V359H595.122V329.909H601.002V341.031H601.258C601.751 339.743 602.546 338.735 603.645 338.006C604.743 337.267 606.121 336.898 607.778 336.898C609.293 336.898 610.614 337.229 611.741 337.892C612.877 338.545 613.758 339.488 614.383 340.719C615.018 341.94 615.33 343.403 615.321 345.108V359H609.27V346.188C609.279 344.843 608.938 343.796 608.247 343.048C607.565 342.3 606.609 341.926 605.377 341.926C604.554 341.926 603.824 342.101 603.19 342.452C602.565 342.802 602.073 343.313 601.713 343.986C601.362 344.649 601.182 345.449 601.173 346.386Z" fill="#231F20"/>
<path d="M375.651 120.082H541.04C559.267 120.082 575.542 111.724 586.463 98.6768C563.683 69.0868 527.93 50.0003 487.701 50.0003C438.443 50.0003 395.871 78.5938 375.651 120.082Z" fill="#F0BF1A"/>
<path d="M527.024 139.549H368.143C364.889 150.669 363.112 162.419 363.112 174.589C363.112 186.76 364.889 198.511 368.143 209.63H527.024C546.102 209.63 562.065 194.057 562.065 174.589C562.065 155.122 546.491 139.549 527.024 139.549Z" fill="#07A5DE"/>
<path d="M586.888 249.961C576.036 237.206 559.892 229.097 541.819 229.097H375.651C395.871 270.586 438.443 299.178 487.701 299.178C528.178 299.178 564.131 279.863 586.888 249.961Z" fill="#3EBEB0"/>
<path d="M368.143 139.549C364.889 150.669 363.112 162.419 363.112 174.589C363.112 186.76 364.889 198.511 368.143 209.63H472.127C474.853 199.118 476.41 187.438 476.41 174.589C476.41 161.741 474.853 150.061 472.127 139.549H368.143Z" fill="#231F20"/>
<path d="M425.017 66.742C403.992 79.2009 386.472 97.8888 375.571 120.082H467.455C458.111 98.6677 443.316 80.7586 425.017 66.742Z" fill="#D7A229"/>
<path d="M428.911 284.383C446.82 269.978 461.226 250.9 470.181 229.097H375.571C387.251 252.458 405.94 271.925 428.911 284.383Z" fill="#019B8F"/>
<defs>
<clipPath id="clip0_201_6">
<rect width="250" height="250" fill="white" transform="translate(50 50)"/>
</clipPath>
</defs>
</svg>
